<?xml version="1.0" encoding="UTF-8"?><svg xmlns="http://www.w3.org/2000/svg" xmlns:xlink="http://www.w3.org/1999/xlink" viewBox="0 0 48 48" version="1.1"><g id="surface1"><path d="M35 38c3.668.02 7-4 7-9 0-4-2-8-5-9v-3c0-5.637-5.844-11-13-11s-13.137 5.387-13.137 11.023V20C8 21 6 24 6 29s3 9 7 9V17c0-4.773 4.68-9 11-9s11 4.227 11 9" fill="#1493F6"/><path d="M33 29l-3-6-3 7-3-10-3 10-3.145-7L15 29v2l2.855-5L21 34l3-8 3 8 3-8 3 5z" fill="#FFC300"/><path d="M35 20c-.566.008-1.59.488-2 1v16c.438.383 1.45.902 2 1zm-22 0v18c.617.027 1.645-.469 2-1V21c-.441-.395-1.45-.922-2-1z" fill="#404CB8"/></g><metadata><rdf:RDF xmlns:rdf="http://www.w3.org/1999/02/22-rdf-syntax-ns#" xmlns:rdfs="http://www.w3.org/2000/01/rdf-schema#" xmlns:dc="http://purl.org/dc/elements/1.1/"><rdf:Description about="https://iconscout.com/legal#licenses" dc:title="audacity" dc:description="audacity" dc:publisher="Iconscout" dc:date="2017-12-15" dc:format="image/svg+xml" dc:language="en"><dc:creator><rdf:Bag><rdf:li>Icons8</rdf:li></rdf:Bag></dc:creator></rdf:Description></rdf:RDF></metadata></svg>